<svg width="64" height="64" viewBox="0 0 64 64" fill="none" xmlns="http://www.w3.org/2000/svg">
<rect width="64" height="64" rx="20" fill="#7EA5BA"/>
<path d="M36.5147 26.6839C37.4838 25.7499 38.8793 26.0458 39.5688 26.8829L39.5703 26.8814C40.2822 27.736 40.2701 29.0746 39.4011 29.9125L39.3982 29.9155L31.7128 37.2665C30.8809 38.065 29.5987 38.1061 28.7414 37.2516L26.5182 35.0436V35.0659L24.5641 33.1113C23.7797 32.3267 23.755 31.2052 24.2287 30.3963V29.5442L24.6073 29.9192C25.3084 29.262 26.512 29.0534 27.3947 29.826L27.4878 29.9117L27.4908 29.9155L30.2633 32.6588L36.5147 26.6839Z" fill="white"/>
<path fill-rule="evenodd" clip-rule="evenodd" d="M31.9081 14.0041C32.4924 13.9665 33.0505 14.1859 33.4724 14.6207L33.5552 14.7101L33.8257 15.012C34.4638 15.7039 35.1554 16.3127 35.9259 16.8511C38.4789 18.6319 41.6692 19.7711 44.7791 20.4264L45.3999 20.5516L45.4044 20.5524C45.9095 20.6512 46.2466 20.9354 46.4567 21.1756C46.6124 21.3536 46.777 21.6143 46.8174 21.6758C46.8788 21.7634 46.9116 21.8352 46.924 21.8629C46.986 22.0014 47.0048 22.1217 47.0075 22.1372C47.0143 22.1771 47.0179 22.2096 47.0194 22.2252C47.0261 22.2965 47.0247 22.368 47.0246 22.3735C47.0241 22.4287 47.0218 22.5332 47.0157 22.7381C47.01 22.927 47.0103 23.2244 47.0119 23.4873C47.0127 23.6157 47.0132 23.7317 47.0142 23.8153C47.0147 23.8569 47.0154 23.8907 47.0157 23.9137C47.0158 23.9249 47.0163 23.9339 47.0164 23.9398V23.9487L47.0172 24.0054L47.0127 24.0613L46.921 25.1609L46.9203 25.1661C46.6589 28.1343 46.2845 31.1054 45.4379 34.0506C43.9894 39.1291 41.3994 43.877 37.2652 47.1627L36.8605 47.4765C35.5888 48.4345 34.2386 49.2379 32.7115 49.7972L32.7108 49.7964C32.5787 49.8458 32.3606 49.9254 32.1145 49.9679C31.8637 50.0111 31.4909 50.0342 31.0972 49.8792C24.2232 47.1697 20.2204 40.8083 18.382 33.8068C17.3856 30.0083 16.931 26.1108 16.9779 22.1812L16.9906 21.9702C17.0944 20.9561 17.8501 20.0346 19.0162 20.0044H19.1385L19.1422 20.0052C21.4353 20.0742 23.6009 19.4556 25.7007 18.3055C27.4517 17.3428 29.039 16.1511 30.4526 14.7012L30.4555 14.6982C30.817 14.33 31.3208 14.0421 31.9081 14.0041ZM31.9938 16.3986C30.4409 17.9718 28.7043 19.2674 26.8022 20.3131L26.8007 20.3138C24.4689 21.591 21.9665 22.3388 19.2667 22.2953C19.2297 25.9999 19.6617 29.6619 20.5962 33.2246L20.7647 33.8411C22.5463 40.1208 26.1178 45.3896 31.7978 47.6905C31.8303 47.6801 31.8682 47.6679 31.9155 47.6502L31.9245 47.6465C33.1903 47.1829 34.3435 46.5057 35.4832 45.6471C39.3392 42.7418 41.8322 38.3484 43.2371 33.4229L43.2378 33.4207C44.0238 30.6876 44.3822 27.8885 44.6397 24.9648L44.7254 23.9264C44.7251 23.904 44.7258 23.8753 44.7254 23.8421C44.7244 23.7554 44.7233 23.6346 44.7224 23.5007C44.721 23.2679 44.7213 22.978 44.7262 22.7515C41.3047 22.0732 37.6217 20.826 34.6164 18.7297C33.6426 18.0494 32.7793 17.2742 31.9938 16.3986ZM47.0149 22.4764C47.0151 22.475 47.0155 22.4733 47.0157 22.4719V22.469L47.0149 22.4682V22.4764Z" fill="white"/>
</svg>
