<svg width="64" height="64" viewBox="0 0 64 64" fill="none" xmlns="http://www.w3.org/2000/svg">
<rect width="64" height="64" rx="20" fill="#7EA5BA"/>
<path fill-rule="evenodd" clip-rule="evenodd" d="M20.1495 20.1485C19.7566 20.1485 19.3798 20.3046 19.102 20.5824C18.8241 20.8603 18.668 21.2371 18.668 21.63V29.0374C18.668 29.4303 18.8241 29.8071 19.102 30.085C19.3798 30.3628 19.7566 30.5189 20.1495 30.5189H23.1125C23.9307 30.5189 24.594 31.1822 24.594 32.0004C24.594 32.8186 23.9307 33.4818 23.1125 33.4818H20.1495C18.9708 33.4818 17.8403 33.0136 17.0068 32.1801C16.1733 31.3466 15.7051 30.2161 15.7051 29.0374V21.63C15.7051 20.4513 16.1733 19.3208 17.0068 18.4873C17.8403 17.6538 18.9708 17.1855 20.1495 17.1855H43.8532C45.032 17.1855 46.1624 17.6538 46.9959 18.4873C47.8294 19.3208 48.2977 20.4513 48.2977 21.63V29.0374C48.2977 30.2161 47.8294 31.3466 46.9959 32.1801C46.1624 33.0136 45.032 33.4818 43.8532 33.4818H40.8903C40.0721 33.4818 39.4088 32.8186 39.4088 32.0004C39.4088 31.1822 40.0721 30.5189 40.8903 30.5189H43.8532C44.2461 30.5189 44.623 30.3628 44.9008 30.085C45.1786 29.8071 45.3347 29.4303 45.3347 29.0374V21.63C45.3347 21.2371 45.1786 20.8603 44.9008 20.5824C44.623 20.3046 44.2461 20.1485 43.8532 20.1485H20.1495Z" fill="white"/>
<path fill-rule="evenodd" clip-rule="evenodd" d="M21.631 26.0744C21.631 25.2562 22.2943 24.593 23.1125 24.593H40.8903C41.7085 24.593 42.3717 25.2562 42.3717 26.0744C42.3717 26.8926 41.7085 27.5559 40.8903 27.5559H23.1125C22.2943 27.5559 21.631 26.8926 21.631 26.0744Z" fill="white"/>
<path fill-rule="evenodd" clip-rule="evenodd" d="M34.9643 30.5189C35.7825 30.5189 36.4458 31.1822 36.4458 32.0004V43.1178C36.4663 43.4656 36.5667 43.8041 36.7393 44.107C36.9159 44.4167 37.1629 44.6803 37.4604 44.8766C37.9169 45.1687 38.4644 45.2839 39 45.2005C39.5377 45.1168 40.0259 44.8387 40.3722 44.419C40.7185 43.9993 40.8988 43.4671 40.8788 42.9233C40.8589 42.3796 40.6402 41.862 40.2641 41.4688C39.6985 40.8775 39.7194 39.9397 40.3107 39.3742C40.902 38.8086 41.8398 38.8295 42.4053 39.4208C43.2829 40.3384 43.7933 41.546 43.8398 42.8148C43.8863 44.0836 43.4657 45.3253 42.6577 46.3047C41.8497 47.284 40.7104 47.9328 39.4559 48.1282C38.2014 48.3235 36.9188 48.0518 35.8513 47.3645L35.8408 47.3578C35.1491 46.9042 34.5748 46.2929 34.1652 45.5742C33.7555 44.8556 33.5222 44.05 33.4844 43.2237C33.4834 43.2011 33.4829 43.1785 33.4829 43.1559V32.0004C33.4829 31.1822 34.1461 30.5189 34.9643 30.5189Z" fill="white"/>
<path fill-rule="evenodd" clip-rule="evenodd" d="M29.0384 30.5189C29.8566 30.5189 30.5199 31.1822 30.5199 32.0004V39.3984C30.5283 40.1298 30.356 40.852 30.0183 41.501C29.6788 42.1534 29.1828 42.7113 28.5747 43.1248C27.9665 43.5382 27.2653 43.7944 26.5338 43.8702C25.8024 43.946 25.0635 43.8391 24.3835 43.5591C23.7035 43.2791 23.1036 42.8347 22.6376 42.2658C22.1716 41.6969 21.854 41.0213 21.7134 40.2995C21.5727 39.5777 21.6133 38.8323 21.8316 38.13C22.0499 37.4278 22.4391 36.7907 22.9642 36.2758C23.5484 35.703 24.4864 35.7123 25.0592 36.2965C25.632 36.8807 25.6228 37.8187 25.0386 38.3915C24.8635 38.5632 24.7338 38.7755 24.661 39.0096C24.5883 39.2437 24.5747 39.4922 24.6216 39.7328C24.6685 39.9734 24.7744 40.1986 24.9297 40.3882C25.085 40.5778 25.285 40.7259 25.5117 40.8193C25.7383 40.9126 25.9846 40.9482 26.2284 40.923C26.4723 40.8977 26.706 40.8123 26.9087 40.6745C27.1114 40.5367 27.2768 40.3507 27.3899 40.1333C27.5031 39.9158 27.5605 39.6737 27.5571 39.4286L27.5568 39.4078L27.5569 32.0004C27.5569 31.1822 28.2202 30.5189 29.0384 30.5189Z" fill="white"/>
</svg>
