<svg width="130" height="43" viewBox="0 0 130 43" fill="none" xmlns="http://www.w3.org/2000/svg">
<path fill-rule="evenodd" clip-rule="evenodd" d="M110.292 26.9539C114.682 26.9539 116.257 25.784 116.257 21.5001C116.257 17.216 114.682 16.0464 110.292 16.0464C105.919 16.0464 104.359 17.216 104.359 21.5001C104.359 25.784 105.918 26.9539 110.292 26.9539ZM110.292 24.6296C108.304 24.6296 107.723 24.0066 107.723 21.5001C107.723 18.9935 108.304 18.3707 110.292 18.3707C112.281 18.3707 112.877 18.9935 112.877 21.5001C112.877 24.0067 112.281 24.6296 110.292 24.6296Z" fill="#1D272E"/>
<path d="M98.777 26.9234C100.765 26.9234 101.958 26.787 103.227 26.4379L102.967 24.1892C101.744 24.2956 100.627 24.3105 98.777 24.3105C96.8808 24.3104 96.3149 23.733 96.3149 21.5001C96.3149 19.267 96.8808 18.6899 98.777 18.6898C100.536 18.6898 101.393 18.7046 102.677 18.7197L102.953 16.4721C101.683 16.1983 100.75 16.0768 98.777 16.0768C94.5103 16.0769 92.9507 17.5049 92.9506 21.5001C92.9506 25.4954 94.5103 26.9234 98.777 26.9234Z" fill="#1D272E"/>
<path d="M55.9441 18.5985H60.0119V16.259H48.6797V18.5985H52.7629V26.7413H55.9441V18.5985Z" fill="#1D272E"/>
<path d="M64.6449 22.2749H69.3251V26.7413H72.5212V16.259H69.3251V20.0719H64.6449V16.259H61.4643V26.7413H64.6449V22.2749Z" fill="#1D272E"/>
<path fill-rule="evenodd" clip-rule="evenodd" d="M77.827 24.3714H82.5221L83.4395 26.7413H86.6971L82.7821 17.0642C82.6443 16.5782 82.2163 16.259 81.681 16.259H78.6834C78.148 16.259 77.7197 16.5781 77.5664 17.0642L73.6668 26.7413H76.9244L77.827 24.3714ZM79.6163 19.7223C79.7539 19.3578 79.8917 18.9324 79.9373 18.568H80.3963C80.4574 18.9325 80.5952 19.3578 80.7327 19.7223L81.681 22.1683H78.6834L79.6163 19.7223Z" fill="#1D272E"/>
<path d="M91.009 16.259H87.8427V26.7413H91.009V16.259Z" fill="#1D272E"/>
<path d="M121.196 21.318C121.196 20.771 121.135 20.163 121.043 19.5858H121.241C121.425 20.1481 121.777 20.7863 122.098 21.2114L125.539 25.8448C125.937 26.3917 126.135 26.7413 126.808 26.7413H128.735C129.484 26.7413 129.867 26.3765 129.867 25.6626V16.259H126.869V21.5154C126.869 22.1076 126.931 22.6698 127.022 23.2622H126.793C126.502 22.6547 126.151 22.0775 125.799 21.6219L122.496 17.1555C122.098 16.6237 121.884 16.259 121.226 16.259H119.299C118.565 16.259 118.168 16.6238 118.168 17.3377V26.7413H121.196V21.318Z" fill="#1D272E"/>
<path d="M25.3587 15.0107C28.5804 16.6655 31.4395 16.8919 31.8054 12.4197C32.2055 7.53088 30.8271 4.21767 26.6895 1.56525C24.2512 0.00210013 20.9402 -1.35646 19.9085 2.52005C18.4593 7.96616 20.4239 12.4765 25.3587 15.0107Z" fill="#1D272E"/>
<path d="M11.0209 19.5857C14.5005 21.1577 19.4492 22.6847 20.5559 17.431C21.5191 12.8585 17.9027 9.7511 14.5306 7.52344C10.9178 5.13677 3.00381 0.139778 0.48303 6.45683C-2.10173 12.9337 6.30655 17.4559 11.0209 19.5857Z" fill="#1D272E"/>
<path d="M11.3616 39.9583C15.9878 43.454 19.5728 39.9271 22.2311 36.0714C24.8685 32.246 26.2841 28.573 22.4041 24.8521C20.4027 22.9327 18.2771 22.3703 15.7213 23.66C13.6256 24.7174 10.1888 28.5952 9.09896 30.7116C7.24018 34.3217 8.16695 37.5444 11.3616 39.9583Z" fill="#1D272E"/>
<path d="M39.2386 31.3562C40.206 31.9466 43.3172 33.8201 43.2889 31.4192C43.2654 29.4719 40.6512 27.4783 39.2253 26.389C38.0691 25.5055 35.016 23.216 33.599 23.3545C33.4287 23.3711 33.2472 23.4027 33.0959 23.4879C32.4536 23.8492 32.5892 24.9788 32.8057 25.556C33.5796 27.6211 37.3626 30.2112 39.2386 31.3562Z" fill="#1D272E"/>
<path d="M33.9587 42.4847C35.7471 43.6863 37.6391 42.6761 37.9173 40.5976C38.2959 37.7675 35.8998 33.7378 34.4278 31.2837C33.3194 29.4355 30.9863 25.9203 28.4422 27.0436C26.3284 27.9773 27.0666 31.068 27.658 32.7655C28.6744 35.6823 31.4291 40.7843 33.9587 42.4847Z" fill="#1D272E"/>
</svg>
