<svg width="64" height="64" viewBox="0 0 64 64" fill="none" xmlns="http://www.w3.org/2000/svg">
<rect width="64" height="64" rx="20" fill="#7EA5BA"/>
<path fill-rule="evenodd" clip-rule="evenodd" d="M21.5 20C20.6716 20 20 20.6716 20 21.5V42.5C20 43.3284 20.6716 44 21.5 44H42.5C43.3284 44 44 43.3284 44 42.5V21.5C44 20.6716 43.3284 20 42.5 20H21.5ZM17 21.5C17 19.0147 19.0147 17 21.5 17H42.5C44.9853 17 47 19.0147 47 21.5V42.5C47 44.9853 44.9853 47 42.5 47H21.5C19.0147 47 17 44.9853 17 42.5V21.5Z" fill="white"/>
<path fill-rule="evenodd" clip-rule="evenodd" d="M27.5 26C26.6716 26 26 26.6716 26 27.5C26 28.3284 26.6716 29 27.5 29C28.3284 29 29 28.3284 29 27.5C29 26.6716 28.3284 26 27.5 26ZM23 27.5C23 25.0147 25.0147 23 27.5 23C29.9853 23 32 25.0147 32 27.5C32 29.9853 29.9853 32 27.5 32C25.0147 32 23 29.9853 23 27.5Z" fill="white"/>
<path fill-rule="evenodd" clip-rule="evenodd" d="M35.5685 30.8102C36.4124 29.9666 37.5568 29.4926 38.75 29.4926C39.9432 29.4926 41.0876 29.9666 41.9315 30.8102L46.5607 35.4393C47.1464 36.0251 47.1464 36.9749 46.5607 37.5607C45.9749 38.1464 45.0251 38.1464 44.4393 37.5607L39.8105 32.9318C39.5292 32.6507 39.1477 32.4926 38.75 32.4926C38.3523 32.4926 37.9709 32.6506 37.6897 32.9317L24.0607 46.5607C23.4749 47.1464 22.5251 47.1464 21.9393 46.5607C21.3536 45.9749 21.3536 45.0251 21.9393 44.4393L35.5685 30.8102Z" fill="white"/>
</svg>
