<svg width="48" height="48" viewBox="0 0 48 48" fill="none" xmlns="http://www.w3.org/2000/svg">
<rect width="48" height="48" rx="16" fill="#7EA5BA"/>
<path d="M24.1119 36.2228H23.6674C22.7785 36.2228 21.8896 35.8894 21.3341 35.2228C20.6674 34.5561 20.3341 33.7783 20.3341 32.8894V32.6672C20.3341 32.445 20.3341 32.3339 20.223 32.1117C20.1119 31.8894 20.0008 31.7783 19.7785 31.6672L19.3341 31.3339C19.0008 31.1117 18.5563 31.1117 18.223 31.3339L18.0008 31.445C17.223 31.8894 16.3341 32.0005 15.5563 31.7783C14.6674 31.5561 14.0008 31.0005 13.5563 30.2228L13.3341 29.7783C12.8896 29.0005 12.7785 28.1117 13.0008 27.2228C13.223 26.3339 13.7785 25.6672 14.5563 25.2228L14.6674 25.1117C14.8896 25.0005 15.0008 24.8894 15.1119 24.6672C15.223 24.5561 15.223 24.3339 15.223 24.1117V23.5561C15.223 23.3339 15.223 23.2228 15.1119 23.0005C15.0008 22.8894 14.8896 22.6672 14.6674 22.5561L14.4452 22.445C13.7785 22.0005 13.223 21.3339 13.0008 20.445C12.7785 19.5561 12.8896 18.6672 13.3341 17.8894L13.5563 17.445C14.0008 16.6672 14.6674 16.1117 15.5563 15.8894C16.4452 15.6672 17.3341 15.7783 18.1119 16.2228L18.223 16.3339C18.6674 16.5561 19.0008 16.5561 19.3341 16.3339L19.7785 16.1117C20.0008 16.0005 20.1119 15.8894 20.223 15.6672C20.3341 15.445 20.3341 15.3339 20.3341 15.1117C20.3341 14.2228 20.6674 13.3339 21.3341 12.7783C22.0008 12.1117 22.7785 11.7783 23.6674 11.7783H24.1119C25.0008 11.7783 25.8896 12.1117 26.4452 12.7783C27.1119 13.445 27.4452 14.2228 27.4452 15.1117V15.3339C27.4452 15.5561 27.4452 15.6672 27.5563 15.8894C27.6674 16.1117 27.7785 16.2228 28.0008 16.3339L28.4452 16.6672C28.7785 16.8894 29.223 16.8894 29.5563 16.6672L29.7785 16.5561C30.5563 16.1117 31.4452 16.0005 32.223 16.2228C33.0008 16.445 33.7785 17.0005 34.223 17.7783L34.4452 18.2228C34.8896 19.0005 35.0008 19.8894 34.7785 20.7783C34.5563 21.6672 34.0008 22.3339 33.223 22.7783L33.1119 22.8894C32.8896 23.0005 32.7785 23.1117 32.6674 23.3339C32.5563 23.445 32.5563 23.6672 32.5563 23.8894V24.445C32.5563 24.6672 32.5563 24.8894 32.6674 25.0005C32.7785 25.2228 32.8896 25.3339 33.1119 25.445L33.223 25.5561C34.0008 26.0005 34.5563 26.7783 34.7785 27.5561C35.0008 28.445 34.8896 29.3339 34.4452 30.1117L34.223 30.5561C33.7785 31.3339 33.0008 31.8894 32.223 32.1117C31.3341 32.3339 30.4452 32.2228 29.6674 31.7783L29.5563 31.6672C29.1119 31.445 28.7785 31.445 28.4452 31.6672L28.0008 31.8894C27.7785 32.0005 27.6674 32.1117 27.5563 32.3339C27.4452 32.5561 27.4452 32.6672 27.4452 32.8894C27.4452 33.7783 27.1119 34.6672 26.4452 35.2228C25.8896 35.8894 25.0008 36.2228 24.1119 36.2228ZM18.6674 29.1117C19.223 29.1117 19.7785 29.2228 20.3341 29.5561L20.7785 29.8894C21.3341 30.2228 21.6674 30.5561 22.0008 31.1117C22.3341 31.6672 22.4452 32.2228 22.4452 32.7783V32.8894C22.4452 33.2228 22.5563 33.445 22.7785 33.6672C23.0008 33.8894 23.223 34.0005 23.5563 34.0005H24.0008C24.3341 34.0005 24.5563 33.8894 24.7785 33.6672C25.0008 33.445 25.1119 33.2228 25.1119 32.8894V32.6672C25.1119 32.1117 25.223 31.5561 25.5563 31.0005C25.8896 30.445 26.223 30.1117 26.7785 29.7783L27.223 29.5561C28.223 29.0005 29.5563 29.0005 30.5563 29.5561L30.6674 29.6672C31.0008 29.7783 31.223 29.8894 31.5563 29.7783C31.8896 29.6672 32.1119 29.5561 32.223 29.2228L32.4452 28.7783C32.5563 28.5561 32.6674 28.2228 32.5563 27.8894C32.4452 27.5561 32.3341 27.3339 32.0008 27.2228L31.8896 27.1117C31.3341 26.7783 30.8896 26.3339 30.6674 25.8894C30.4452 25.445 30.223 24.7783 30.223 24.2228V23.6672C30.223 23.1117 30.3341 22.5561 30.6674 22.0005C31.0008 21.445 31.3341 21.1117 31.8896 20.7783L32.0008 20.6672C32.223 20.5561 32.4452 20.2228 32.5563 20.0005C32.6674 19.6672 32.5563 19.445 32.4452 19.1117L32.223 18.6672C32.1119 18.445 31.8896 18.2228 31.5563 18.1117C31.223 18.0005 31.0008 18.1117 30.6674 18.2228V18.445C29.6674 19.0005 28.3341 19.0005 27.3341 18.445L26.8896 18.1117C26.3341 17.7783 26.0008 17.445 25.6674 16.8894C25.3341 16.3339 25.223 15.7783 25.223 15.2228V15.1117C25.223 14.7783 25.1119 14.5561 24.8896 14.3339C24.6674 14.1117 24.4452 14.0005 24.1119 14.0005H23.6674C23.3341 14.0005 23.1119 14.1117 22.8896 14.3339C22.6674 14.5561 22.5563 14.7783 22.5563 15.1117V15.3339C22.5563 15.8894 22.4452 16.445 22.1119 17.0005C21.7785 17.5561 21.4452 17.8894 20.8896 18.2228L20.4452 18.445C19.4452 19.0005 18.1119 19.0005 17.1119 18.445H16.8896C16.5563 18.3339 16.3341 18.2228 16.0008 18.3339C15.6674 18.445 15.4452 18.5561 15.3341 18.8894L15.1119 19.3339C15.0008 19.5561 14.8896 19.8894 15.0008 20.2228C15.1119 20.5561 15.223 20.7783 15.5563 20.8894L15.7785 21.0005C16.223 21.2228 16.6674 21.6672 16.8896 22.2228C17.223 22.7783 17.3341 23.3339 17.3341 23.8894V24.445C17.3341 25.0005 17.223 25.5561 16.8896 26.1117C16.5563 26.6672 16.223 27.0005 15.6674 27.3339L15.5563 27.445C15.3341 27.5561 15.1119 27.8894 15.0008 28.1117C14.8896 28.445 15.0008 28.6672 15.1119 29.0005L15.3341 29.445C15.4452 29.6672 15.6674 29.8894 16.0008 30.0005C16.3341 30.1117 16.5563 30.0005 16.8896 29.8894L17.1119 29.7783C17.5563 29.2228 18.1119 29.1117 18.6674 29.1117Z" fill="white"/>
<path d="M23.8897 28.445C21.4452 28.445 19.4452 26.445 19.4452 24.0005C19.4452 21.5561 21.4452 19.5561 23.8897 19.5561C26.3341 19.5561 28.3341 21.5561 28.3341 24.0005C28.3341 26.445 26.3341 28.445 23.8897 28.445ZM23.8897 21.7783C22.6675 21.7783 21.6675 22.7783 21.6675 24.0005C21.6675 25.2228 22.6675 26.2228 23.8897 26.2228C25.1119 26.2228 26.1119 25.2228 26.1119 24.0005C26.1119 22.7783 25.1119 21.7783 23.8897 21.7783Z" fill="white"/>
</svg>
