<svg width="48" height="48" viewBox="0 0 48 48" fill="none" xmlns="http://www.w3.org/2000/svg">
<rect width="48" height="48" rx="16" fill="#7EA5BA"/>
<path fill-rule="evenodd" clip-rule="evenodd" d="M13.8937 15.0045C15.2481 13.6501 17.0851 12.8892 19.0005 12.8892C20.0896 12.8892 21.0819 13.0449 22.0526 13.4677C22.7335 13.7643 23.3695 14.1774 24.0005 14.7107C24.6315 14.1774 25.2676 13.7643 25.9485 13.4677C26.9192 13.0449 27.9115 12.8892 29.0005 12.8892C30.916 12.8892 32.753 13.6501 34.1074 15.0045C35.4619 16.3589 36.2228 18.1959 36.2228 20.1114C36.2228 23.1579 34.2123 25.3927 32.56 27.0122L24.7862 34.7859C24.3523 35.2199 23.6488 35.2199 23.2149 34.7859L15.4437 27.0148C13.7721 25.3981 11.7783 23.1663 11.7783 20.1114C11.7783 18.1959 12.5392 16.3589 13.8937 15.0045ZM19.0005 15.1114C17.6745 15.1114 16.4027 15.6382 15.465 16.5758C14.5273 17.5135 14.0005 18.7853 14.0005 20.1114C14.0005 22.1635 15.3347 23.8186 16.995 25.4236L17.0084 25.4368L24.0005 32.4289L31.0006 25.4288C32.6586 23.8042 34.0005 22.1513 34.0005 20.1114C34.0005 18.7853 33.4738 17.5135 32.5361 16.5758C31.5984 15.6382 30.3266 15.1114 29.0005 15.1114C28.1341 15.1114 27.4596 15.2334 26.8359 15.5051C26.205 15.7799 25.5562 16.2382 24.7862 17.0082C24.3523 17.4421 23.6488 17.4421 23.2149 17.0082C22.4449 16.2382 21.7961 15.7799 21.1652 15.5051C20.5415 15.2334 19.867 15.1114 19.0005 15.1114Z" fill="white"/>
<path fill-rule="evenodd" clip-rule="evenodd" d="M24.7862 15.4368C25.2201 15.8707 25.2201 16.5743 24.7862 17.0082L21.4945 20.2999C21.3727 20.4208 21.2761 20.5645 21.2102 20.7228C21.1443 20.8812 21.1103 21.051 21.1103 21.2225C21.1103 21.394 21.1443 21.5638 21.2102 21.7222C21.2761 21.8805 21.3727 22.0242 21.4945 22.1451L21.4973 22.1479C21.9841 22.6347 22.7658 22.6622 23.2991 22.1878L25.5983 20.0774C26.3793 19.3688 27.396 18.9763 28.4505 18.9763C29.5041 18.9763 30.5199 19.3681 31.3006 20.0754C31.3013 20.0761 31.302 20.0768 31.3027 20.0774L34.5877 23.0294C35.0441 23.4396 35.0816 24.1421 34.6714 24.5985C34.2613 25.0549 33.5587 25.0924 33.1023 24.6823L29.8094 21.7231C29.4374 21.3855 28.953 21.1985 28.4505 21.1985C27.9491 21.1985 27.4656 21.3848 27.0938 21.7212L24.7868 23.8387C23.3874 25.0934 21.2617 25.0535 19.9274 23.7207C19.5983 23.3936 19.3371 23.0047 19.1587 22.5763C18.9801 22.1473 18.8881 21.6872 18.8881 21.2225C18.8881 20.7578 18.9801 20.2977 19.1587 19.8687C19.337 19.4404 19.5982 19.0515 19.9273 18.7244L23.2149 15.4368C23.6488 15.0029 24.3523 15.0029 24.7862 15.4368Z" fill="white"/>
<path fill-rule="evenodd" clip-rule="evenodd" d="M27.6593 24.3257C28.0932 23.8918 28.7967 23.8918 29.2307 24.3257L31.4529 26.5479C31.8868 26.9818 31.8868 27.6854 31.4529 28.1193C31.019 28.5532 30.3155 28.5532 29.8815 28.1193L27.6593 25.8971C27.2254 25.4631 27.2254 24.7596 27.6593 24.3257Z" fill="white"/>
<path fill-rule="evenodd" clip-rule="evenodd" d="M24.326 27.659C24.7599 27.2251 25.4634 27.2251 25.8973 27.659L28.1196 29.8813C28.5535 30.3152 28.5535 31.0187 28.1196 31.4526C27.6856 31.8865 26.9821 31.8865 26.5482 31.4526L24.326 29.2304C23.8921 28.7965 23.8921 28.093 24.326 27.659Z" fill="white"/>
</svg>
