<svg width="239" height="60" viewBox="0 0 239 60" fill="none" xmlns="http://www.w3.org/2000/svg">
<g clip-path="url(#clip0_2744_128047)">
<path d="M127.277 25.9504H132.897V37.3127H137.274V25.9504H142.872V22.6865H127.277V25.9504Z" fill="#C4D3DD"/>
<path d="M155.687 28.0068H149.247V22.6865H144.869V37.3127H149.247V31.0807H155.687V37.3127H160.085V22.6865H155.687V28.0068Z" fill="#C4D3DD"/>
<path d="M168.563 30.9321L169.847 27.519C170.036 27.0104 170.226 26.4168 170.289 25.9082H170.92C171.004 26.4168 171.194 27.0104 171.383 27.519L172.688 30.9321H168.563ZM172.688 22.6865H168.563C167.827 22.6865 167.238 23.1315 167.027 23.8098L161.66 37.3126H166.143L167.385 34.0059H173.846L175.109 37.3126H179.592L174.204 23.8098C174.014 23.1315 173.425 22.6865 172.688 22.6865Z" fill="#C4D3DD"/>
<path d="M181.172 37.3126H185.529V22.6865H181.172V37.3126Z" fill="#C4D3DD"/>
<path d="M196.218 33.9207C193.608 33.9207 192.829 33.115 192.829 29.9993C192.829 26.883 193.608 26.0777 196.218 26.0777C198.638 26.0777 199.817 26.0988 201.585 26.1199L201.963 22.983C200.217 22.601 198.933 22.4316 196.218 22.4316C190.346 22.4316 188.199 24.4244 188.199 29.9993C188.199 35.5742 190.346 37.5666 196.218 37.5666C198.954 37.5666 200.595 37.376 202.342 36.8887L201.984 33.7511C200.301 33.8996 198.764 33.9207 196.218 33.9207Z" fill="#C4D3DD"/>
<path d="M212.064 34.3655C209.328 34.3655 208.529 33.4962 208.529 29.9988C208.529 26.501 209.328 25.6318 212.064 25.6318C214.8 25.6318 215.621 26.501 215.621 29.9988C215.621 33.4962 214.8 34.3655 212.064 34.3655ZM212.064 22.3887C206.045 22.3887 203.898 24.0207 203.898 29.9988C203.898 35.9762 206.045 37.6086 212.064 37.6086C218.104 37.6086 220.272 35.9762 220.272 29.9988C220.272 24.0207 218.104 22.3887 212.064 22.3887Z" fill="#C4D3DD"/>
<mask id="mask0_2744_128047" style="mask-type:luminance" maskUnits="userSpaceOnUse" x="222" y="22" width="17" height="16">
<path d="M222.887 22.6807H238.998V37.3207H222.887V22.6807Z" fill="white"/>
</mask>
<g mask="url(#mask0_2744_128047)">
<path d="M234.876 22.6865V30.0209C234.876 30.8475 234.96 31.6317 235.086 32.4584H234.77C234.37 31.6106 233.886 30.8049 233.402 30.1692L228.857 23.9371C228.309 23.1951 228.015 22.6865 227.11 22.6865H224.458C223.448 22.6865 222.9 23.1951 222.9 24.1912V37.3126H227.067V29.745C227.067 28.9817 226.983 28.134 226.857 27.3286H227.13C227.383 28.1131 227.867 29.0032 228.309 29.5965L233.045 36.062C233.592 36.8251 233.865 37.3126 234.791 37.3126H237.443C238.474 37.3126 239 36.8037 239 35.8077V22.6865H234.876Z" fill="#C4D3DD"/>
</g>
<path d="M88.5761 24.3219C89.9017 17.9416 84.9255 13.6057 80.2849 10.4973C75.3133 7.16705 64.4227 0.194393 60.9539 9.009C57.3967 18.0465 68.967 24.3561 75.4547 27.328C80.243 29.5215 87.0531 31.6528 88.5761 24.3219Z" fill="#C4D3DD"/>
<path d="M81.9228 33.0144C79.0387 34.4897 74.3097 39.9009 72.81 42.854C70.2521 47.8913 71.527 52.388 75.9233 55.7564C82.2895 60.6343 87.2231 55.713 90.8813 50.3329C94.5108 44.995 96.4591 39.8695 91.1196 34.6775C88.3653 31.9992 85.44 31.2147 81.9228 33.0144Z" fill="#C4D3DD"/>
<path d="M104.056 17.3302C104.607 10.5084 102.71 5.8854 97.0158 2.18426C93.6603 0.00317093 89.1037 -1.89292 87.684 3.5161C85.6894 11.1155 88.3932 17.4093 95.1841 20.9454C99.6176 23.2546 103.552 23.5704 104.056 17.3302Z" fill="#C4D3DD"/>
<path d="M99.43 37.7343C96.5207 39.0372 97.537 43.3499 98.3509 45.7186C99.7496 49.7885 103.54 56.9077 107.022 59.2801C109.483 60.9567 112.086 59.5473 112.469 56.6472C112.99 52.6979 109.692 47.0747 107.666 43.6505C106.141 41.0715 102.931 36.1669 99.43 37.7343Z" fill="#C4D3DD"/>
<path d="M114.267 36.8225C112.676 35.5897 108.475 32.3951 106.525 32.5885C106.29 32.6117 106.04 32.6559 105.832 32.7748C104.948 33.2791 105.135 34.8549 105.433 35.6603C106.498 38.542 111.704 42.1563 114.286 43.7539C115.617 44.5777 119.898 47.1918 119.859 43.8418C119.826 41.1244 116.229 38.3424 114.267 36.8225Z" fill="#C4D3DD"/>
<path d="M15.3366 26.4639L12.9688 26.4788V29.5821H15.3366C17.0212 29.5821 17.5358 29.2615 17.5358 28.023C17.5358 26.7843 17.0212 26.4639 15.3366 26.4639Z" fill="#C4D3DD"/>
<path d="M39.7215 35.4501C35.5345 35.4501 34.0464 34.2114 34.0464 29.9642C34.0464 25.7149 35.5345 24.4761 39.7215 24.4761C43.9105 24.4761 45.4137 25.7149 45.4137 29.9642C45.4137 34.2114 43.9105 35.4501 39.7215 35.4501ZM29.8594 35.2371L28.7663 32.0266C28.493 31.3858 28.0233 31.1857 27.2034 31.1857L24.8057 31.1708V35.2371H22.2414V24.6891C23.8193 24.5536 24.9124 24.5365 27.2803 24.5365C30.6943 24.5365 32.1056 25.2718 32.1056 27.6869C32.1056 29.1233 31.4373 30.1018 29.5241 30.2697V30.36C30.2224 30.4675 31.0721 30.82 31.3924 31.9663L32.6051 35.2371H29.8594ZM15.898 31.5062C14.9287 31.5062 13.9722 31.4459 13.1373 31.3383V35.2371H10.541V24.6891C12.1209 24.5536 13.197 24.5365 15.5499 24.5365C19.1626 24.5365 20.3304 25.302 20.3304 28.0224C20.3304 30.7579 19.1626 31.5062 15.898 31.5062ZM41.8224 17.5967H13.7288C3.25169 17.5967 0 20.4482 0 28.8912V30.4719C0 39.5511 3.25169 42.4006 13.7288 42.4006H41.8224C51.567 42.4006 54.9192 39.5511 54.9192 30.4719V28.8912C54.9192 20.4482 51.567 17.5967 41.8224 17.5967Z" fill="#C4D3DD"/>
<path d="M27.0513 26.4639L24.6387 26.4788V29.2615H27.0513C28.7658 29.2615 29.3123 28.9542 29.3123 27.8552C29.3123 26.7543 28.7658 26.4639 27.0513 26.4639Z" fill="#C4D3DD"/>
<path d="M39.5562 26.5098C37.3101 26.5098 36.627 27.2604 36.627 29.9657C36.627 32.671 37.3101 33.4194 39.5562 33.4194C41.7874 33.4194 42.4856 32.671 42.4856 29.9657C42.4856 27.2604 41.7874 26.5098 39.5562 26.5098Z" fill="#C4D3DD"/>
</g>
<defs>
<clipPath id="clip0_2744_128047">
<rect width="239" height="60" fill="white"/>
</clipPath>
</defs>
</svg>
