<svg width="166" height="70" viewBox="0 0 166 70" fill="none" xmlns="http://www.w3.org/2000/svg">
<path fill-rule="evenodd" clip-rule="evenodd" d="M133.195 41.0599C138.053 41.0599 139.797 39.76 139.797 35.0002C139.797 30.24 138.053 28.9404 133.195 28.9404C128.355 28.9404 126.629 30.24 126.629 35.0002C126.629 39.76 128.355 41.0599 133.195 41.0599ZM133.195 38.4774C130.995 38.4773 130.352 37.7852 130.352 35.0002C130.352 32.215 130.995 31.523 133.195 31.523C135.396 31.523 136.056 32.215 136.056 35.0002C136.056 37.7852 135.396 38.4774 133.195 38.4774Z" fill="#1D272E"/>
<path d="M120.452 41.0261C122.652 41.0261 123.972 40.8745 125.377 40.4866L125.089 37.988C123.735 38.1063 122.5 38.1227 120.452 38.1227C118.353 38.1227 117.727 37.4811 117.727 35.0002C117.727 32.5189 118.353 31.8776 120.452 31.8776C122.398 31.8776 123.346 31.894 124.768 31.9108L125.073 29.4134C123.668 29.1092 122.635 28.9743 120.452 28.9743C115.73 28.9743 114.004 30.561 114.004 35.0002C114.004 39.4393 115.73 41.026 120.452 41.0261Z" fill="#1D272E"/>
<path d="M73.05 31.7761H77.5518V29.1766H65.0107V31.7761H69.5295V40.8237H73.05V31.7761Z" fill="#1D272E"/>
<path d="M82.6789 35.861H87.8584V40.8237H91.3953V29.1766H87.8584V33.4132H82.6789V29.1766H79.159V40.8237H82.6789V35.861Z" fill="#1D272E"/>
<path fill-rule="evenodd" clip-rule="evenodd" d="M97.2671 38.1904H102.463L103.478 40.8237H107.083L102.751 30.0713C102.598 29.5313 102.125 29.1767 101.532 29.1766H98.2149C97.6224 29.1766 97.1483 29.5312 96.9788 30.0713L92.6631 40.8237H96.2682L97.2671 38.1904ZM99.2473 33.0248C99.3995 32.6198 99.552 32.1472 99.6025 31.7423H100.11C100.178 32.1472 100.331 32.6198 100.483 33.0248L101.532 35.7426H98.2149L99.2473 33.0248Z" fill="#1D272E"/>
<path d="M111.855 29.1766H108.351V40.8237H111.855V29.1766Z" fill="#1D272E"/>
<path d="M145.262 34.7978C145.262 34.1901 145.194 33.5144 145.093 32.8731H145.312C145.516 33.4979 145.905 34.207 146.26 34.6794L150.069 39.8275C150.508 40.4352 150.728 40.8236 151.473 40.8237H153.605C154.435 40.8237 154.858 40.4183 154.858 39.6251V29.1766H151.541V35.0171C151.541 35.6751 151.608 36.2998 151.71 36.958H151.456C151.135 36.283 150.745 35.6416 150.356 35.1355L146.701 30.1728C146.26 29.5819 146.023 29.1766 145.295 29.1766H143.163C142.351 29.1766 141.911 29.582 141.911 30.3752V40.8237H145.262V34.7978Z" fill="#1D272E"/>
<path d="M39.2043 27.7898C42.7696 29.6286 45.9337 29.8801 46.3386 24.911C46.7814 19.479 45.2559 15.7976 40.6771 12.8505C37.9786 11.1137 34.3145 9.60415 33.1728 13.9114C31.5689 19.9626 33.7431 24.9741 39.2043 27.7898Z" fill="#1D272E"/>
<path d="M23.3371 32.8732C27.1878 34.6198 32.6644 36.3166 33.8892 30.4791C34.9551 25.3986 30.953 21.9459 27.2211 19.4707C23.223 16.8189 14.4648 11.2666 11.6752 18.2856C8.81471 25.4821 18.1199 30.5068 23.3371 32.8732Z" fill="#1D272E"/>
<path d="M23.7141 55.5094C28.8338 59.3936 32.8011 55.4748 35.7431 51.1907C38.6618 46.9402 40.2284 42.859 35.9345 38.7248C33.7196 36.5921 31.3673 35.9672 28.5389 37.4003C26.2196 38.5751 22.4162 42.8837 21.2101 45.2353C19.1531 49.2465 20.1787 52.8273 23.7141 55.5094Z" fill="#1D272E"/>
<path d="M54.5646 45.9515C55.6353 46.6075 59.0784 48.6892 59.047 46.0215C59.021 43.8578 56.128 41.6428 54.5499 40.4325C53.2704 39.4508 49.8916 36.9068 48.3235 37.0608C48.135 37.0792 47.9342 37.1143 47.7668 37.209C47.0559 37.6105 47.206 38.8655 47.4455 39.5069C48.302 41.8014 52.4886 44.6793 54.5646 45.9515Z" fill="#1D272E"/>
<path d="M48.7216 58.3165C50.7008 59.6516 52.7946 58.5292 53.1024 56.2198C53.5214 53.0752 50.8697 48.5977 49.2407 45.871C48.0141 43.8174 45.4321 39.9116 42.6167 41.1597C40.2773 42.1972 41.0943 45.6314 41.7488 47.5175C42.8737 50.7583 45.9222 56.4272 48.7216 58.3165Z" fill="#1D272E"/>
</svg>
